<?xml version="1.0" encoding="iso-8859-1"?>
<!-- Generator: Adobe Illustrator 19.0.0, SVG Export Plug-In . SVG Version: 6.00 Build 0)  -->
<svg version="1.1" id="Layer_1" xmlns="http://www.w3.org/2000/svg" xmlns:xlink="http://www.w3.org/1999/xlink" x="0px" y="0px"
	 viewBox="0 0 512 512" style="enable-background:new 0 0 512 512;" xml:space="preserve">
<circle style="fill:#273B7A;" cx="256" cy="256" r="256"/>
<path style="fill:#121149;" d="M292.428,509.409c112.228-15.991,200.988-104.753,216.979-216.979l-123.22-123.22l-21.716,11.15
	l-77.786-77.788L169.182,242.736l-66.61,43.951l76.081,76.081l-9.445,23.419L292.428,509.409z"/>
<path style="fill:#FFFFFF;" d="M409.428,286.686v-61.371h-34.552c-2.898-11.261-7.377-21.88-13.147-31.646l24.46-24.46
	l-43.396-43.396l-24.461,24.459c-9.766-5.77-20.387-10.249-31.647-13.146v-34.552h-61.371v34.552
	c-11.261,2.898-21.88,7.377-31.647,13.146l-24.459-24.459l-43.396,43.396l24.459,24.459c-5.77,9.766-10.249,20.387-13.146,31.647
	h-34.552v61.371h34.552c2.898,11.261,7.377,21.88,13.146,31.646l-24.461,24.461l43.396,43.396l24.461-24.46
	c9.766,5.77,20.385,10.249,31.646,13.147v34.554h61.371v-34.552c11.261-2.898,21.88-7.377,31.646-13.147l24.461,24.459
	l43.396-43.396l-24.46-24.461c5.77-9.766,10.249-20.387,13.147-31.646H409.428z M256,302.028c-25.421,0-46.028-20.608-46.028-46.028
	s20.608-46.028,46.028-46.028s46.028,20.608,46.028,46.028S281.421,302.028,256,302.028z"/>
<path style="fill:#D0D1D3;" d="M409.428,286.686v-61.371h-34.552c-2.898-11.261-7.377-21.88-13.147-31.646l24.46-24.459
	l-43.396-43.396l-24.461,24.459c-9.766-5.77-20.387-10.249-31.646-13.147v-34.554h-31.26v107.415
	c0.191-0.002,0.381-0.014,0.574-0.014c25.421,0,46.028,20.608,46.028,46.028s-20.608,46.028-46.028,46.028
	c-0.193,0-0.383-0.012-0.574-0.014v107.411h31.258v-34.552c11.261-2.898,21.88-7.377,31.646-13.147l24.461,24.459l43.396-43.396
	l-24.46-24.461c5.77-9.766,10.249-20.387,13.147-31.646H409.428z"/>
<path style="fill:#D35933;" d="M256,350.815c-52.281,0-94.815-42.534-94.815-94.815s42.534-94.815,94.815-94.815
	s94.815,42.534,94.815,94.815S308.281,350.815,256,350.815z M256,180.148c-41.825,0-75.852,34.026-75.852,75.852
	s34.026,75.852,75.852,75.852s75.852-34.026,75.852-75.852S297.825,180.148,256,180.148z"/>
<path style="fill:#B54324;" d="M256,161.185c-0.193,0-0.381,0.014-0.574,0.014v18.963c0.193-0.002,0.381-0.014,0.574-0.014
	c41.825,0,75.852,34.026,75.852,75.852S297.825,331.852,256,331.852c-0.193,0-0.381-0.014-0.574-0.014v18.963
	c0.193,0.002,0.381,0.014,0.574,0.014c52.281,0,94.815-42.534,94.815-94.815S308.281,161.185,256,161.185z"/>
<g>
</g>
<g>
</g>
<g>
</g>
<g>
</g>
<g>
</g>
<g>
</g>
<g>
</g>
<g>
</g>
<g>
</g>
<g>
</g>
<g>
</g>
<g>
</g>
<g>
</g>
<g>
</g>
<g>
</g>
</svg>
